<svg width="32" height="32" viewBox="0 0 32 32" fill="none" xmlns="http://www.w3.org/2000/svg">
  <rect width="32" height="32" rx="8" fill="url(#gradient)"/>
  <path d="M16 8C12.6863 8 10 10.6863 10 14C10 15.3137 10.3137 16.5686 10.8627 17.6863L8.68627 19.8627C7.88235 21.7647 8.43137 24.0392 10.1176 25.7255C11.8039 27.4118 14.0784 27.9608 15.9804 27.1569L18.1569 25.9804C19.2745 26.5294 20.5294 26.8431 21.8431 26.8431C25.1569 26.8431 27.8431 24.1569 27.8431 20.8431C27.8431 17.5294 25.1569 14.8431 21.8431 14.8431C20.5294 14.8431 19.2745 15.1569 18.1569 15.7059L15.9804 14.5294C16.5294 13.4118 16.8431 12.1569 16.8431 10.8431C16.8431 9.52941 16.5294 8.27451 15.9804 7.15686L18.1569 5.98039C19.2745 6.52941 20.5294 6.84314 21.8431 6.84314C25.1569 6.84314 27.8431 4.15686 27.8431 0.843137C27.8431 -2.47059 25.1569 -5.15686 21.8431 -5.15686C18.5294 -5.15686 15.8431 -2.47059 15.8431 0.843137C15.8431 2.15686 16.1569 3.41176 16.7059 4.52941L14.5294 5.70588C13.4118 5.15686 12.1569 4.84314 10.8431 4.84314C7.52941 4.84314 4.84314 7.52941 4.84314 10.8431C4.84314 14.1569 7.52941 16.8431 10.8431 16.8431C12.1569 16.8431 13.4118 16.5294 14.5294 15.9804L16.7059 17.1569C16.1569 18.2745 15.8431 19.5294 15.8431 20.8431C15.8431 22.1569 16.1569 23.4118 16.7059 24.5294L14.5294 25.7059C13.4118 25.1569 12.1569 24.8431 10.8431 24.8431C7.52941 24.8431 4.84314 22.1569 4.84314 18.8431C4.84314 15.5294 7.52941 12.8431 10.8431 12.8431C12.1569 12.8431 13.4118 13.1569 14.5294 13.7059L16.7059 12.5294C16.1569 11.4118 15.8431 10.1569 15.8431 8.84314C15.8431 7.52941 16.1569 6.27451 16.7059 5.15686" fill="white" fill-opacity="0.9"/>
  <circle cx="16" cy="16" r="6" fill="white" fill-opacity="0.8"/>
  <circle cx="16" cy="16" r="3" fill="url(#gradient)" fill-opacity="0.6"/>
  
  <defs>
    <linearGradient id="gradient" x1="0%" y1="0%" x2="100%" y2="100%">
      <stop offset="0%" style="stop-color:#0ea5e9;stop-opacity:1" />
      <stop offset="50%" style="stop-color:#a855f7;stop-opacity:1" />
      <stop offset="100%" style="stop-color:#10b981;stop-opacity:1" />
    </linearGradient>
  </defs>
</svg>
